<?xml version="1.0" encoding="UTF-8"?>
<svg id="Layer_1" data-name="Layer 1" xmlns="http://www.w3.org/2000/svg" viewBox="0 0 960 960">
  <defs>
    <style>
      .cls-1 {
        fill: #135f90;
        stroke-width: 0px;
      }
    </style>
  </defs>
  <g id="Foreground">
    <path class="cls-1" d="M242.47,379.8l-16.72,44.55h-119c-9.24,0-16.72,7.5-16.71,16.73,0,9.23,7.49,16.71,16.71,16.71h74.48c33.83,0,61.25,27.42,61.25,61.25s-27.42,61.25-61.25,61.25H45.49l16.72-44.59h119c9.24,0,16.72-7.49,16.72-16.72s-7.49-16.72-16.72-16.72h-74.48c-33.81-.88-60.51-29.01-59.63-62.83.85-32.57,27.06-58.78,59.63-59.63h135.73Z"/>
    <polygon class="cls-1" points="588.78 379.8 572.08 424.35 627.77 424.35 627.77 580.25 672.31 580.25 672.31 424.35 716.84 424.35 733.54 379.8 588.78 379.8"/>
    <path class="cls-1" d="M852.38,502.3h-85.71c-9.24,0-16.72,7.49-16.72,16.72s7.49,16.72,16.72,16.72h102.43v-33.45h-16.72ZM811.22,457.75h57.88v-17.33c-.39-8.95-7.77-16-16.72-15.99h-130.25l16.72-44.55h113.53c33.83,0,61.25,27.42,61.25,61.25v139.11h-146.95c-33.83,0-61.25-27.42-61.25-61.25s27.42-61.25,61.25-61.25h44.55Z"/>
    <path class="cls-1" d="M511.23,502.3h-85.71c-9.24,0-16.72,7.49-16.72,16.72s7.49,16.72,16.72,16.72h102.32v-33.45h-16.62ZM488.95,457.75h39.01v-17.33c-.39-8.95-7.77-16-16.72-15.99h-130.17l16.72-44.55h113.44c33.83,0,61.25,27.42,61.25,61.25,0,0,0,0,0,0v139.11h-146.87c-33.83,0-61.25-27.42-61.25-61.25s27.42-61.25,61.25-61.25h63.34Z"/>
    <polygon class="cls-1" points="247.7 379.8 230.99 424.35 286.68 424.35 286.68 580.25 331.23 580.25 331.23 424.35 375.77 424.35 392.48 379.8 247.7 379.8"/>
  </g>
</svg>